<svg xmlns="http://www.w3.org/2000/svg" xmlns:xlink="http://www.w3.org/1999/xlink" width="500" zoomAndPan="magnify" viewBox="0 0 375 374.999991" height="500" preserveAspectRatio="xMidYMid meet" version="1.0"><defs><g/><clipPath id="7cb1a2101e"><rect x="0" width="159" y="0" height="147"/></clipPath></defs><g transform="matrix(1, 0, 0, 1, 106, 114)"><g clip-path="url(#7cb1a2101e)"><g fill="#e4e2dd" fill-opacity="1"><g transform="translate(1.385596, 115.291378)"><g><path d="M 29.3125 -68.21875 L 29.3125 -46.078125 L 68.09375 -46.078125 L 68.09375 -30.515625 L 29.3125 -30.515625 L 29.3125 0 L 9.9375 0 L 9.9375 -83.765625 L 73.234375 -83.765625 L 73.234375 -68.21875 Z M 29.3125 -68.21875 "/></g></g></g><g fill="#e4e2dd" fill-opacity="1"><g transform="translate(62.764201, 115.291378)"><g><path d="M 9.9375 -83.765625 L 47.984375 -83.765625 C 57.078125 -83.765625 65.113281 -82.03125 72.09375 -78.5625 C 79.082031 -75.09375 84.507812 -70.207031 88.375 -63.90625 C 92.25 -57.601562 94.1875 -50.265625 94.1875 -41.890625 C 94.1875 -33.503906 92.25 -26.160156 88.375 -19.859375 C 84.507812 -13.554688 79.082031 -8.671875 72.09375 -5.203125 C 65.113281 -1.734375 57.078125 0 47.984375 0 L 9.9375 0 Z M 47.03125 -15.921875 C 55.40625 -15.921875 62.085938 -18.253906 67.078125 -22.921875 C 72.066406 -27.585938 74.5625 -33.910156 74.5625 -41.890625 C 74.5625 -49.867188 72.066406 -56.191406 67.078125 -60.859375 C 62.085938 -65.523438 55.40625 -67.859375 47.03125 -67.859375 L 29.3125 -67.859375 L 29.3125 -15.921875 Z M 47.03125 -15.921875 "/></g></g></g></g></g></svg>